<svg width="66" height="44" viewBox="0 0 66 44" fill="none" xmlns="http://www.w3.org/2000/svg">
<path fill-rule="evenodd" clip-rule="evenodd" d="M34.4423 2.7911C31.8363 4.28772 29.6788 5.52176 29.6478 5.53338C29.6169 5.54501 32.5978 10.7777 36.2721 17.1617L42.9526 28.7688H49.3724H55.7923L55.6369 28.4928C55.2767 27.8525 39.3227 0.278935 39.2549 0.179303C39.1889 0.0823344 38.6454 0.377333 34.4423 2.7911ZM23.4365 12.8974C20.8109 14.4107 18.6707 15.68 18.6804 15.7182C18.6902 15.7564 20.3925 18.7157 22.4635 22.2945L26.2289 28.8013L26.2291 30.149L26.2293 31.4966H27.5932H28.9572V30.1331V28.7696L33.9595 28.7529L38.9619 28.7363L33.5963 19.4486C30.6453 14.3403 28.2262 10.1576 28.2205 10.1535C28.2149 10.1494 26.0621 11.3843 23.4365 12.8974ZM12.2044 22.7292C9.61677 24.2283 7.47767 25.477 7.45085 25.5042C7.42402 25.5315 7.8156 26.2771 8.3211 27.1613L9.24013 28.7688H15.6309C20.7168 28.7688 22.0152 28.7522 21.9903 28.6876C21.9135 28.4878 17.0099 20.0344 16.9624 20.0199C16.9331 20.0111 14.792 21.2302 12.2044 22.7292ZM22.1375 31.0762V33.3835L21.6666 33.126C20.0073 32.2183 18.0153 32.1937 16.2596 33.0593C15.1134 33.6244 14.2859 34.4413 13.7304 35.556C13.2628 36.4944 13.1438 37.0135 13.1499 38.089C13.156 39.1752 13.2817 39.7317 13.7224 40.622C14.6897 42.5764 16.7023 43.836 18.8576 43.836C19.7868 43.836 20.6956 43.6072 21.6001 43.1457L22.1375 42.8715V43.2243V43.5772H23.5015H24.8654V36.173V28.7688H23.5015H22.1375V31.0762ZM39.0243 31.0664V33.3639L38.5534 33.1128C36.5484 32.0436 34.0681 32.2411 32.2654 33.6136C31.2055 34.4206 30.43 35.6459 30.1534 36.9508C30.0464 37.4555 30.0343 38.5297 30.1296 39.0675C30.6718 42.1286 33.4933 44.1891 36.579 43.7772C37.2314 43.6901 38.2535 43.3472 38.7141 43.0609L39.0243 42.8681V43.2226V43.5772H40.3882H41.7521V36.173V28.7688H40.3882H39.0243V31.0664ZM5.4032 32.4702C3.21214 32.7796 1.38025 34.3031 0.716731 36.3678C-0.132284 39.0097 1.09415 41.941 3.57222 43.1927C5.25706 44.0438 7.13091 44.0453 8.8392 43.197L9.47245 42.8825V43.2298V43.5772H10.8039H12.1354V38.0565V32.5358H10.8039H9.47245V32.9527V33.3696L8.85582 33.0556C8.48549 32.8671 8.01097 32.6881 7.66758 32.6075C7.00354 32.4516 5.97598 32.3892 5.4032 32.4702ZM47.5789 32.4724C46.1591 32.6967 44.7444 33.5021 43.9014 34.566C43.4658 35.1157 43.0958 35.8276 42.8807 36.5302C42.7197 37.056 42.7019 37.2094 42.704 38.0565C42.7067 39.1463 42.8237 39.6958 43.2366 40.557C43.985 42.1185 45.3416 43.2242 47.078 43.6879C47.676 43.8476 49.1521 43.8442 49.7627 43.6817C50.3241 43.5323 50.8693 43.3113 51.2933 43.0613L51.6244 42.8661V43.2216V43.5772H52.9883H54.3523V38.0565V32.5358H52.9883H51.6244V32.9659C51.6244 33.3021 51.6067 33.3816 51.5432 33.3297C51.3143 33.1427 50.3573 32.7285 49.8768 32.6084C49.2495 32.4517 48.1295 32.3853 47.5789 32.4724ZM59.5807 32.4485C57.6043 32.6832 56.2689 33.6023 55.8352 35.0264C55.7232 35.394 55.7049 35.5879 55.7297 36.1451C55.7572 36.7623 55.7802 36.8605 56.0033 37.3121C56.5956 38.5104 57.456 38.9386 60.1718 39.3869C61.5023 39.6066 61.9512 39.7514 62.2082 40.044C62.6172 40.5098 62.3691 41.1942 61.659 41.5592C61.3657 41.7099 61.262 41.7261 60.5874 41.7261C60.0032 41.7261 59.7649 41.6981 59.4938 41.5976C58.8621 41.3634 58.4365 40.8739 58.3401 40.2707L58.2975 40.005H56.877H55.4564V40.2187C55.4564 40.5644 55.638 41.1623 55.8868 41.6358C56.6702 43.1265 58.5633 43.9407 60.9497 43.8131C63.6229 43.6702 65.1897 42.4658 65.3708 40.4147C65.5228 38.6931 64.3874 37.4386 62.2652 36.9835C61.8604 36.8966 61.12 36.7531 60.6199 36.6645C59.4844 36.4634 59.0886 36.3368 58.7975 36.0816C58.5085 35.8284 58.4449 35.5159 58.611 35.1659C58.7007 34.9769 58.8095 34.8824 59.0889 34.7514C59.4231 34.5947 59.5179 34.5817 60.3276 34.5817C61.1665 34.5817 61.2175 34.5895 61.5073 34.7598C61.869 34.9724 62.0761 35.2829 62.1361 35.7023L62.1801 36.0106L63.5596 36.0281C65.1352 36.0481 65.0067 36.1113 64.8389 35.3996C64.6384 34.5488 63.9575 33.6219 63.191 33.1563C62.293 32.6108 60.7544 32.3092 59.5807 32.4485ZM26.2293 38.0565V43.5772H27.5932H28.9572V38.0565V32.5358H27.5932H26.2293V38.0565ZM7.07375 35.0436C8.32448 35.4147 9.22207 36.426 9.41776 37.6847C9.56793 38.6505 9.23065 39.5903 8.47269 40.3182C6.99393 41.7381 4.67759 41.4613 3.55812 39.7308C3.215 39.2004 3.08523 38.6647 3.11803 37.9141C3.14154 37.3779 3.17311 37.2453 3.38205 36.8053C4.05498 35.3883 5.65773 34.6235 7.07375 35.0436ZM19.7388 35.0425C20.3234 35.2143 20.8175 35.5169 21.2258 35.9534C22.4454 37.2572 22.4083 39.0981 21.1378 40.3182C19.902 41.5048 18.0402 41.5358 16.7871 40.3906C16.1873 39.8424 15.8755 39.2484 15.7724 38.4573C15.5783 36.9676 16.625 35.4431 18.1175 35.0418C18.5875 34.9154 19.307 34.9157 19.7388 35.0425ZM37.0183 35.161C38.2247 35.6507 39.0243 36.8307 39.0243 38.1215C39.0243 39.6418 37.9176 40.9206 36.3725 41.1856C35.3601 41.3592 34.3807 41.0345 33.6391 40.2795C32.9443 39.5722 32.6914 38.9086 32.7351 37.908C32.7581 37.3814 32.7907 37.2437 32.9928 36.8202C33.3957 35.9757 34.0454 35.3933 34.931 35.0826C35.5216 34.8754 36.3955 34.9083 37.0183 35.161ZM49.2907 35.0436C49.869 35.2152 50.2665 35.4522 50.6814 35.8729C51.6966 36.902 51.9089 38.283 51.2515 39.581C51.0088 40.0602 50.354 40.6825 49.8383 40.9238C47.7376 41.9068 45.3198 40.3604 45.3251 38.0371C45.3281 36.7121 46.3735 35.4029 47.7275 35.0285C48.1422 34.9139 48.8773 34.921 49.2907 35.0436Z" fill="#2D2D2D"/>
</svg>
