<svg width="39" height="48" viewBox="0 0 39 48" fill="none" xmlns="http://www.w3.org/2000/svg">
<path fill-rule="evenodd" clip-rule="evenodd" d="M28.6545 0.609921C26.6778 0.80042 24.3571 1.94536 22.7289 3.53342C20.987 5.23234 19.8099 7.59401 19.6035 9.80401C19.5718 10.1434 19.5864 10.951 19.6283 11.1766L19.6566 11.329L19.8527 11.3569C20.139 11.3975 20.8436 11.3731 21.2055 11.31C22.5867 11.0692 24.025 10.3894 25.3106 9.37C25.6992 9.06177 26.4179 8.33438 26.7718 7.89108C27.2868 7.24587 27.7241 6.55637 28.0771 5.83286C28.5913 4.77912 28.8959 3.78228 29.0625 2.60832C29.1106 2.26903 29.1328 1.21186 29.0975 0.93887C29.0487 0.561941 29.058 0.583964 28.9499 0.587486C28.8978 0.589178 28.7649 0.599287 28.6545 0.609921ZM27.769 11.9205C27.2367 11.9519 26.5149 12.0682 25.8823 12.2246C25.0495 12.4304 24.4246 12.6428 22.955 13.2194C21.7627 13.6873 21.3929 13.8177 20.9133 13.9391C20.3048 14.0931 19.771 14.0893 19.113 13.9261C18.6471 13.8106 18.3067 13.6896 17.0822 13.2041C15.9038 12.7368 15.4741 12.5813 14.9165 12.42C13.5588 12.0273 12.4752 11.9399 11.1088 12.1129C9.63553 12.2995 8.21003 12.7878 6.92378 13.5464C4.42311 15.0214 2.55491 17.4036 1.54901 20.3999C0.806066 22.6129 0.545952 25.1217 0.773591 27.8787C0.982043 30.4031 1.59917 33.0827 2.55644 35.6199C3.17091 37.2485 4.00191 38.9641 4.82723 40.308C5.5818 41.5367 7.10264 43.5996 8.0475 44.676C9.80502 46.6783 11.4351 47.531 13.2564 47.401C14.2153 47.3326 14.8234 47.1617 16.2995 46.5457C17.2518 46.1484 17.6495 45.9998 18.1421 45.8574C19.6313 45.4267 21.3141 45.3888 22.7721 45.7532C23.3822 45.9057 23.7334 46.0327 24.7731 46.4768C26.0627 47.0277 26.5567 47.1834 27.3688 47.2949C27.7293 47.3444 28.5024 47.3637 28.8095 47.3308C30.2287 47.1787 31.5238 46.4741 32.8122 45.153C33.5985 44.3468 34.3938 43.3332 35.5375 41.6802C36.7983 39.8578 37.9211 37.6332 38.6192 35.5741C38.8314 34.9484 38.8327 34.9425 38.7647 34.9214C38.5345 34.8502 37.6536 34.3668 37.1911 34.0578C34.5481 32.2923 32.9524 29.747 32.6076 26.7467C32.3207 24.2511 32.8712 21.8775 34.2066 19.8516C34.9806 18.6773 36.0992 17.5575 37.2997 16.7552C37.4538 16.6522 37.5798 16.5569 37.5798 16.5433C37.5798 16.5046 37.2659 16.0844 36.9934 15.7584C35.0662 13.4531 32.3424 12.1283 29.1183 11.9282C28.7711 11.9067 28.071 11.9027 27.769 11.9205Z" fill="#2D2D2D"/>
</svg>
