<svg width="24" height="15" viewBox="0 0 24 15" fill="none" xmlns="http://www.w3.org/2000/svg">
<path d="M22 2H15V0H22V2ZM23.726 12C23.284 13.297 21.697 15 18.625 15C15.551 15 13.061 13.271 13.061 9.325C13.061 5.415 15.386 3.405 18.527 3.405C21.609 3.405 23.491 5.187 23.902 7.831C23.98 8.337 24.011 9.019 23.997 9.971H15.97C16.1 13.182 19.453 13.283 20.558 12H23.726ZM16.04 8H21.005C20.9 6.453 19.869 5.781 18.528 5.781C17.062 5.781 16.251 6.549 16.04 8ZM6.466 14.988H0V0.0209999H6.953C12.429 0.102 12.533 5.465 9.673 6.927C13.134 8.187 13.25 14.988 6.466 14.988ZM3 6H6.584C9.092 6 9.49 3 6.272 3H3V6ZM6.391 9H3V12.016H6.341C9.396 12.016 9.209 9 6.391 9Z" fill="black"/>
</svg>
