<svg width="21" height="24" viewBox="0 0 21 24" fill="none" xmlns="http://www.w3.org/2000/svg">
<path d="M13.93 11.4C13.9104 11.6382 13.8218 11.8655 13.6751 12.0542C13.5283 12.2428 13.3298 12.3846 13.1038 12.4623C12.8777 12.5399 12.634 12.55 12.4023 12.4914C12.1706 12.4327 11.961 12.3078 11.7991 12.132C11.6373 11.9561 11.5302 11.7369 11.4909 11.5011C11.4516 11.2654 11.4819 11.0233 11.578 10.8045C11.6741 10.5856 11.8318 10.3995 12.032 10.2689C12.2321 10.1383 12.466 10.0688 12.705 10.069C13.388 10.098 13.93 10.659 13.93 11.346L13.929 11.402V11.399L13.93 11.4ZM8.32602 10.07C7.99451 10.1009 7.68641 10.2542 7.46192 10.5001C7.23744 10.746 7.1127 11.0668 7.11207 11.3997C7.11145 11.7327 7.23498 12.0539 7.45854 12.3006C7.6821 12.5474 7.98962 12.7019 8.32102 12.734H8.32602C8.65553 12.7203 8.96699 12.5798 9.19529 12.3418C9.42359 12.1038 9.55105 11.7868 9.55102 11.457L9.55002 11.401V11.404L9.55202 11.337C9.55202 10.652 9.01102 10.094 8.33302 10.068H8.33102L8.32602 10.07ZM21 2.472V24C17.977 21.328 18.943 22.213 15.432 18.948L16.068 21.168H2.45902C1.80612 21.1661 1.18058 20.9056 0.719467 20.4433C0.258357 19.9811 -0.000714535 19.3549 -0.000976562 18.702V2.466C-0.000979193 1.81319 0.25787 1.18701 0.718821 0.724745C1.17977 0.262481 1.80521 0.00185308 2.45802 0L18.539 0C19.1919 0.00185254 19.8175 0.262448 20.2786 0.724684C20.7397 1.18692 20.9988 1.8131 20.999 2.466V2.472H21ZM17.58 13.848C17.5441 11.3811 16.9383 8.956 15.81 6.762L15.852 6.852C14.8909 6.09319 13.7171 5.65308 12.494 5.593L12.48 5.592L12.312 5.784C13.462 6.096 14.462 6.621 15.314 7.319L15.3 7.308C13.8152 6.50099 12.151 6.08074 10.461 6.086C8.96802 6.086 7.55002 6.407 6.27202 6.984L6.33602 6.958C5.89202 7.162 5.62802 7.308 5.62802 7.308C6.5354 6.56842 7.5934 6.03601 8.72802 5.748L8.78402 5.736L8.66402 5.592C7.43121 5.65139 6.24791 6.09513 5.28002 6.861L5.29202 6.852C4.24002 8.888 3.60602 11.289 3.56402 13.834V13.848C3.97854 14.4295 4.52978 14.9 5.16911 15.2181C5.80843 15.5362 6.51621 15.6921 7.23002 15.672H7.22402C7.22402 15.672 7.66802 15.132 8.02802 14.676C7.18899 14.463 6.44949 13.9662 5.93502 13.27L5.92802 13.26C6.10402 13.384 6.39602 13.544 6.41802 13.56C7.70106 14.2648 9.14216 14.6319 10.606 14.627C11.7591 14.6284 12.9011 14.4014 13.966 13.959L13.908 13.98C14.436 13.778 14.89 13.54 15.312 13.257L15.287 13.273C14.7596 13.9822 14.0014 14.4854 13.143 14.696L13.117 14.701C13.477 15.157 13.909 15.673 13.909 15.673L14.02 15.674C14.7133 15.6746 15.3969 15.5106 16.0144 15.1954C16.632 14.8802 17.1658 14.4229 17.572 13.861L17.581 13.848H17.58Z" fill="black"/>
</svg>
