<svg width="18" height="18" viewBox="0 0 18 18" fill="none" xmlns="http://www.w3.org/2000/svg">
<path d="M17 0H1C0.734784 0 0.48043 0.105357 0.292893 0.292893C0.105357 0.48043 0 0.734784 0 1V17C0 17.2652 0.105357 17.5196 0.292893 17.7071C0.48043 17.8946 0.734784 18 1 18H9.615V11.04H7.277V8.315H9.615V6.315C9.615 3.99 11.035 2.723 13.115 2.723C13.814 2.721 14.514 2.757 15.21 2.83V5.25H13.775C12.647 5.25 12.427 5.788 12.427 6.575V8.31H15.124L14.774 11.035H12.426V18H17C17.2652 18 17.5196 17.8946 17.7071 17.7071C17.8946 17.5196 18 17.2652 18 17V1C18 0.734784 17.8946 0.48043 17.7071 0.292893C17.5196 0.105357 17.2652 0 17 0Z" fill="black"/>
</svg>
