<svg width="117" height="40" viewBox="0 0 117 40" fill="none" xmlns="http://www.w3.org/2000/svg">
<path d="M49.6729 21.0027C49.6729 26.4999 45.3724 30.5507 40.0947 30.5507C34.8171 30.5507 30.5166 26.4999 30.5166 21.0027C30.5166 15.4668 34.8171 11.4547 40.0947 11.4547C45.3724 11.4547 49.6729 15.4668 49.6729 21.0027ZM45.48 21.0027C45.48 17.5675 42.9876 15.2171 40.0947 15.2171C37.2019 15.2171 34.7095 17.5675 34.7095 21.0027C34.7095 24.4035 37.2019 26.7883 40.0947 26.7883C42.9876 26.7883 45.48 24.3992 45.48 21.0027Z" fill="#2D2D2D"/>
<path d="M70.3358 21.0027C70.3358 26.4999 66.0354 30.5507 60.7577 30.5507C55.48 30.5507 51.1796 26.4999 51.1796 21.0027C51.1796 15.4711 55.48 11.4547 60.7577 11.4547C66.0354 11.4547 70.3358 15.4668 70.3358 21.0027ZM66.143 21.0027C66.143 17.5675 63.6505 15.2171 60.7577 15.2171C57.8649 15.2171 55.3724 17.5675 55.3724 21.0027C55.3724 24.4035 57.8649 26.7883 60.7577 26.7883C63.6505 26.7883 66.143 24.3992 66.143 21.0027Z" fill="#2D2D2D"/>
<path d="M90.1378 12.0316V29.1732C90.1378 36.2244 85.9794 39.1043 81.0633 39.1043C76.4357 39.1043 73.6505 36.0092 72.6001 33.478L76.2506 31.9584C76.9006 33.5124 78.4934 35.3463 81.059 35.3463C84.2058 35.3463 86.1559 33.4048 86.1559 29.75V28.3768H86.0095C85.0711 29.5348 83.2631 30.5464 80.9815 30.5464C76.2075 30.5464 71.8339 26.388 71.8339 21.0372C71.8339 15.6476 76.2075 11.4547 80.9815 11.4547C83.2588 11.4547 85.0668 12.4663 86.0095 13.5899H86.1559V12.0359H90.1378V12.0316ZM86.4529 21.0372C86.4529 17.6751 84.2101 15.2171 81.356 15.2171C78.4632 15.2171 76.0396 17.6751 76.0396 21.0372C76.0396 24.3648 78.4632 26.7883 81.356 26.7883C84.2101 26.7883 86.4529 24.3648 86.4529 21.0372Z" fill="#2D2D2D"/>
<path d="M96.7026 1.98428V29.9654H92.613V1.98428H96.7026Z" fill="#2D2D2D"/>
<path d="M112.639 24.1451L115.893 26.3147C114.843 27.8688 112.312 30.5463 107.938 30.5463C102.514 30.5463 98.4631 26.3535 98.4631 20.9983C98.4631 15.3203 102.548 11.4503 107.469 11.4503C112.424 11.4503 114.847 15.3935 115.639 17.5244L116.074 18.6092L103.31 23.8955C104.288 25.8111 105.807 26.7883 107.938 26.7883C110.073 26.7883 111.554 25.7379 112.639 24.1451ZM102.622 20.7099L111.154 17.1671C110.684 15.9747 109.272 15.1438 107.611 15.1438C105.48 15.1438 102.514 17.025 102.622 20.7099Z" fill="#2D2D2D"/>
<path d="M15.0366 18.5189V14.4681H28.6871C28.8205 15.1741 28.8894 16.0092 28.8894 16.9132C28.8894 19.9524 28.0586 23.7105 25.381 26.3881C22.7766 29.1001 19.449 30.5465 15.0409 30.5465C6.87043 30.5465 0 23.8913 0 15.7208C0 7.55033 6.87043 0.895142 15.0409 0.895142C19.5609 0.895142 22.7809 2.66871 25.2002 4.98038L22.3418 7.83875C20.607 6.21155 18.2566 4.94594 15.0366 4.94594C9.07018 4.94594 4.40379 9.75438 4.40379 15.7208C4.40379 21.6872 9.07018 26.4957 15.0366 26.4957C18.9066 26.4957 21.1107 24.9417 22.5226 23.5297C23.6677 22.3846 24.421 20.7488 24.7181 18.5146L15.0366 18.5189Z" fill="#2D2D2D"/>
</svg>
