<svg width="87" height="32" viewBox="0 0 87 32" fill="none" xmlns="http://www.w3.org/2000/svg">
<path fill-rule="evenodd" clip-rule="evenodd" d="M85.1503 0.990835C84.4214 1.18677 80.4121 2.25951 76.2409 3.37474C72.0696 4.49004 67.5302 5.7043 66.1533 6.0732C64.7764 6.44209 60.9991 7.45261 57.7593 8.31889C40.1826 13.0186 25.1406 17.0432 23.226 17.5586C20.6236 18.259 19.5608 18.4143 17.8509 18.3438C15.2019 18.2347 13.0427 17.4084 11.4921 15.9103C9.86004 14.3337 9.11378 12.2736 9.22202 9.6436C9.30515 7.62388 9.85532 5.54739 10.9377 3.16842C11.1945 2.60388 11.3972 2.13507 11.388 2.12653C11.3788 2.11791 10.9659 2.59939 10.4705 3.1964C4.71855 10.1277 1.31124 16.2242 0.550252 20.9461C0.384507 21.9744 0.400485 23.6526 0.584565 24.556C0.966714 26.431 1.95765 27.8516 3.78814 29.1482C7.50581 31.7817 12.0602 32.066 18.1904 30.047C20.5615 29.266 23.4602 28.0837 34.2339 23.5026C35.7121 22.8741 38.3794 21.7408 40.1613 20.9842C41.9432 20.2274 43.6165 19.5152 43.8797 19.4013C44.1429 19.2874 46.3961 18.3252 48.8867 17.2629C55.3138 14.5219 67.4551 9.33096 81.1742 3.45883C84.171 2.17609 86.6856 1.06586 86.7621 0.991715C86.9355 0.823614 86.8696 0.621791 86.6437 0.629228C86.5513 0.632247 85.8793 0.794974 85.1503 0.990835Z" fill="#2D2D2D"/>
</svg>
