<svg width="114" height="18" viewBox="0 0 114 18" fill="none" xmlns="http://www.w3.org/2000/svg">
<path fill-rule="evenodd" clip-rule="evenodd" d="M5.20959 0.314989C3.22156 0.470472 1.79289 1.14191 1.03831 2.27534C0.577159 2.96807 0.378411 3.6726 0.348677 4.7201C0.331817 5.31396 0.361344 5.67527 0.462382 6.11172C0.712749 7.19314 1.43676 8.07498 2.83587 9.00268C3.33494 9.33356 3.68584 9.54016 4.84543 10.1858C6.29785 10.9944 6.73656 11.2866 7.20979 11.7605C7.5565 12.1076 7.70936 12.3523 7.78807 12.6862C7.88159 13.0829 7.82122 13.6358 7.64353 14.0099C7.39643 14.5302 6.93382 14.7748 6.19836 14.7739C5.34872 14.7728 4.78795 14.3968 4.60848 13.7077C4.57244 13.5694 4.56295 13.345 4.56295 12.6322V11.7316H2.39232H0.22168V12.4846C0.22168 13.296 0.252634 13.7288 0.341689 14.1627C0.698417 15.9002 1.92762 17.0331 3.94432 17.483C5.39083 17.8057 7.25713 17.7701 8.61095 17.3941C9.46059 17.158 10.1407 16.7906 10.6684 16.2827C11.3561 15.6209 11.6899 14.9033 11.8381 13.7684C11.9103 13.2158 11.9099 12.0481 11.8374 11.5829C11.6409 10.322 10.9135 9.37597 9.3608 8.36186C8.84678 8.02613 8.38895 7.76366 7.22421 7.13691C5.78918 6.36476 5.26758 6.02498 4.88875 5.61571C4.58629 5.2889 4.47375 4.98929 4.47375 4.51083C4.47375 3.59229 5.02699 3.04803 5.95929 3.04948C6.59449 3.05047 7.05767 3.28552 7.29248 3.72607C7.45245 4.02621 7.47696 4.17994 7.47696 4.88397V5.51702H9.49892H11.5209L11.5206 4.90003C11.5201 3.69803 11.4178 3.10426 11.1022 2.47248C10.5101 1.28752 9.26874 0.58385 7.37098 0.357509C6.90206 0.301578 5.68666 0.277672 5.20959 0.314989ZM57.8179 0.403569C55.6396 0.573146 54.158 1.34149 53.4673 2.65969C53.3224 2.93628 53.1754 3.32973 53.1074 3.62298C52.917 4.44443 52.9217 5.51277 53.1192 6.26565C53.3845 7.27717 54.1606 8.18033 55.5283 9.06922C55.9371 9.33493 56.3668 9.58652 57.2553 10.0804C57.6874 10.3206 58.243 10.6381 58.4901 10.786C59.503 11.3921 60.0792 11.9309 60.2891 12.4679C60.3818 12.7053 60.4021 13.2412 60.3307 13.5671C60.198 14.1722 59.8783 14.5143 59.3046 14.6652C59.0462 14.7331 58.4949 14.7339 58.2423 14.6667C57.8171 14.5536 57.4623 14.287 57.3031 13.9612C57.1593 13.6668 57.135 13.4626 57.1345 12.5419L57.134 11.7018H54.9898H52.8457L52.8609 12.6757C52.8736 13.4824 52.8866 13.7056 52.9368 13.9766C53.2591 15.7152 54.3948 16.8518 56.2973 17.34C57.8018 17.726 59.7904 17.7062 61.2243 17.291C62.0797 17.0432 62.6928 16.6991 63.2337 16.1632C64.0851 15.3198 64.4024 14.3456 64.401 12.579C64.4005 11.8315 64.368 11.5262 64.2387 11.0508C63.9866 10.1237 63.1592 9.18424 61.8469 8.33498C61.4094 8.05188 60.8901 7.75581 59.8319 7.18624C58.3474 6.3873 57.8399 6.05712 57.461 5.64357C57.0947 5.24379 56.9703 4.75831 57.0898 4.19433C57.2386 3.49182 57.7516 3.10973 58.5464 3.10946C59.1424 3.10928 59.6153 3.35596 59.8507 3.78994C60.001 4.06686 60.024 4.20171 60.0398 4.90003L60.0545 5.54676H62.0435H64.0324V4.86402C64.0324 4.48853 64.0176 4.04361 63.9995 3.87534C63.7858 1.89045 62.4234 0.743437 59.929 0.448142C59.4466 0.391051 58.2919 0.366668 57.8179 0.403569ZM106.657 0.391585C106.28 0.429318 105.658 0.532588 105.341 0.610077C104.394 0.841859 103.686 1.21774 103.101 1.79899C102.424 2.47135 102.091 3.1909 101.911 4.37223C101.859 4.70693 101.836 12.483 101.885 13.0994C101.929 13.6613 101.982 13.963 102.107 14.3631C102.734 16.3668 104.828 17.4589 107.876 17.3716C110.967 17.2832 112.841 16.0126 113.214 13.7535C113.314 13.1507 113.333 12.5966 113.333 10.2319V7.92554H110.463H107.594V9.11493V10.3043H108.426H109.259L109.258 11.7093C109.258 13.2435 109.246 13.3825 109.09 13.6684C108.822 14.1606 108.337 14.4303 107.668 14.459C106.775 14.4972 106.139 14.0948 105.937 13.3639C105.888 13.1862 105.884 12.896 105.884 8.95138C105.884 4.97341 105.887 4.7157 105.938 4.49849C106.126 3.69966 106.687 3.27788 107.564 3.27788C108.099 3.27788 108.465 3.41085 108.772 3.71685C109.132 4.07542 109.199 4.30946 109.221 5.28658L109.237 5.99278H111.27H113.303V5.47673C113.303 3.68955 112.971 2.65502 112.129 1.81484C111.398 1.08512 110.484 0.680132 109.066 0.456437C108.747 0.406126 108.513 0.394143 107.728 0.387601C107.204 0.38326 106.723 0.385043 106.657 0.391585ZM68.1781 0.829132C68.1696 0.851344 68.1675 3.69146 68.1736 7.14054C68.1834 12.7283 68.1898 13.4461 68.2326 13.7279C68.3985 14.8198 68.7208 15.5073 69.3667 16.1477C70.2297 17.0031 71.4212 17.4278 73.2573 17.5343C74.4955 17.6062 75.7595 17.461 76.6901 17.1402C78.4066 16.5483 79.3425 15.3143 79.4933 13.4445C79.5134 13.1957 79.5242 10.9062 79.5242 6.92511V0.789198H77.4879H75.4516L75.4437 7.1004L75.4357 13.4116L75.3692 13.607C75.2006 14.103 74.8698 14.4215 74.364 14.5752C74.0955 14.6568 73.5375 14.6485 73.2811 14.5591C72.8246 14.3998 72.5397 14.1244 72.3478 13.6568L72.2838 13.5008L72.269 7.15243L72.2541 0.804066L70.2238 0.796423C68.5364 0.79006 68.191 0.795592 68.1781 0.829132ZM17.5149 0.900703C17.4634 1.14741 14.5538 16.9799 14.5538 17.0137C14.5538 17.0474 14.915 17.0541 16.7231 17.0541H18.8924L18.9092 16.9575C18.9438 16.7584 21.0955 2.37186 21.0955 2.33948C21.0955 2.32087 21.1222 2.30567 21.1549 2.30567C21.1876 2.30567 21.2144 2.32244 21.2144 2.34293C21.2144 2.37926 23.3081 16.7657 23.3413 16.9575L23.358 17.0541H25.5278H27.6977L27.6822 16.9872C27.6626 16.9024 24.7231 0.858005 24.7231 0.835555C24.7231 0.826427 23.1051 0.818933 21.1275 0.818933H17.532L17.5149 0.900703ZM31.2833 1.03439C31.2689 1.22481 30.9343 16.555 30.9367 16.9129L30.9377 17.0541H32.9596H34.9816L34.9818 15.8127C34.9824 12.7305 35.0734 2.46954 35.1004 2.44254C35.1163 2.42669 35.1373 2.42178 35.1472 2.43166C35.1571 2.44153 35.7662 5.70551 36.5008 9.68494C37.2354 13.6644 37.8433 16.9504 37.8517 16.9872L37.867 17.0541H39.914H41.961L41.9919 16.898C42.0088 16.8121 42.6148 13.5305 43.3385 9.60555C44.0622 5.68056 44.6657 2.45651 44.6796 2.44096C44.6955 2.42312 44.7144 2.42312 44.7307 2.44096C44.75 2.4621 44.8593 15.1311 44.8544 16.7791L44.8535 17.0541H46.8768H48.9L48.8822 16.5263C48.8724 16.236 48.7987 12.8674 48.7185 9.04059C48.6383 5.21373 48.564 1.79834 48.5534 1.4508L48.5341 0.818933L45.2442 0.818962L41.9544 0.819022L40.9587 7.02228C40.0199 12.8712 39.942 13.3185 39.8753 13.2443C39.8698 13.2382 39.4179 10.4433 38.8711 7.03349L37.8769 0.8338L34.5883 0.826247L31.2996 0.818666L31.2833 1.03439ZM84.0439 8.86218V16.9054H86.0213H87.9986L87.9984 16.5412C87.9982 16.3409 87.9515 13.4339 87.8945 10.0813C87.8375 6.72871 87.7908 3.91545 87.7907 3.82958C87.7904 3.58432 87.861 3.62366 87.9507 3.91878C87.9917 4.05372 88.4011 5.40849 88.8606 6.92942C89.32 8.45035 90.1861 11.3172 90.7851 13.3002L91.8743 16.9057L94.7461 16.8981L97.6178 16.8906L97.6253 8.85475L97.6328 0.818933H95.6249H93.617L93.6341 1.42106C93.6434 1.75225 93.69 4.39156 93.7375 7.28624C93.7851 10.1809 93.8305 12.7801 93.8386 13.0622C93.852 13.5351 93.8491 13.5751 93.8015 13.5751C93.7584 13.5751 93.4462 12.5309 91.9103 7.24907C90.8986 3.76972 90.0647 0.899574 90.0571 0.870969C90.0442 0.821847 89.8755 0.818933 87.0436 0.818933H84.0439V8.86218Z" fill="#2D2D2D"/>
</svg>
