<svg width="119" height="32" viewBox="0 0 119 32" fill="none" xmlns="http://www.w3.org/2000/svg">
<path fill-rule="evenodd" clip-rule="evenodd" d="M3.39303 0.897302C1.83812 1.11811 0.571792 2.29294 0.23376 3.82831C0.16486 4.14128 0.159009 5.2827 0.170901 16.1127L0.18402 28.0522L0.291286 28.3976C0.694914 29.6977 1.61543 30.6043 2.94472 31.0111L3.29865 31.1194L14.9313 31.1331C22.6372 31.1423 26.7177 31.1306 27.0194 31.0986C28.5311 30.9381 29.7292 29.9863 30.2303 28.5477L30.3865 28.0993V16.042C30.3865 2.43904 30.4258 3.80443 30.0098 2.94635C29.54 1.97737 28.6797 1.27403 27.5786 0.958698C27.2834 0.874178 26.8264 0.870592 15.474 0.863985C8.98521 0.86021 3.54876 0.875216 3.39303 0.897302ZM15.7935 5.00909C15.901 5.06855 16.0536 5.20922 16.1326 5.32178L16.2763 5.5264L16.2893 13.1319C16.3038 21.633 16.3294 20.9848 15.9662 21.2957C15.5355 21.6644 14.9648 21.6457 14.5685 21.25C14.4499 21.1315 14.3506 20.9773 14.3202 20.8643C14.2848 20.7329 14.2732 18.3908 14.2819 13.1055L14.2942 5.53499L14.4239 5.339C14.727 4.88106 15.3085 4.74099 15.7935 5.00909ZM10.5949 5.44933C10.8493 5.53909 11.0464 5.71917 11.1609 5.9666C11.2447 6.14762 11.2484 6.44248 11.2494 13.1534L11.2504 20.1514L11.152 20.3442C11.0325 20.5785 10.8558 20.7508 10.6421 20.8415C10.4508 20.9228 10.0547 20.93 9.85825 20.8559C9.66137 20.7816 9.41489 20.5371 9.31083 20.3128C9.22674 20.1316 9.22324 19.844 9.22324 13.1397C9.22324 6.44092 9.22683 6.14762 9.31064 5.9666C9.53438 5.48336 10.0746 5.26576 10.5949 5.44933ZM20.6939 5.44933C20.9483 5.53909 21.1453 5.71917 21.2599 5.9666C21.3437 6.14762 21.3473 6.44248 21.3483 13.1534L21.3493 20.1514L21.251 20.3442C21.1315 20.5785 20.9548 20.7508 20.7411 20.8415C20.5497 20.9228 20.1536 20.93 19.9572 20.8559C19.7603 20.7816 19.5138 20.5371 19.4098 20.3128C19.3257 20.1316 19.3222 19.844 19.3222 13.1397C19.3222 6.44092 19.3258 6.14762 19.4096 5.9666C19.6333 5.48336 20.1736 5.26576 20.6939 5.44933ZM5.61145 7.49395C5.84783 7.60136 6.08629 7.86832 6.15382 8.10121C6.19002 8.22603 6.2012 9.70737 6.19134 13.0723L6.17732 17.8658L6.04859 18.0602C5.74751 18.5152 5.12109 18.657 4.65871 18.3748C4.48929 18.2713 4.39816 18.1706 4.30147 17.9799L4.17169 17.7239V12.9646C4.17169 7.75643 4.15763 8.02556 4.44554 7.71853C4.726 7.41943 5.2326 7.32184 5.61145 7.49395ZM25.8094 7.49395C26.0457 7.60136 26.2842 7.86832 26.3517 8.10121C26.3879 8.22603 26.3991 9.70737 26.3892 13.0723L26.3752 17.8658L26.2465 18.0602C25.9454 18.5152 25.319 18.657 24.8566 18.3748C24.6872 18.2713 24.5961 18.1706 24.4994 17.9799L24.3696 17.7239V12.9646C24.3696 7.75643 24.3555 8.02556 24.6434 7.71853C24.9239 7.41943 25.4305 7.32184 25.8094 7.49395ZM89.2341 10.5044C87.6946 10.7468 86.3897 11.8477 85.9146 13.3049C85.6363 14.1587 85.5261 15.4436 85.6145 16.805C85.6779 17.7819 85.7805 18.3432 85.9986 18.9069C86.4637 20.109 87.5441 21.0736 88.7858 21.3954C89.2101 21.5054 90.214 21.5459 90.6379 21.4701C91.5563 21.306 92.3085 20.9166 92.9647 20.2656C93.384 19.8496 93.6765 19.4026 93.759 19.0519C93.8024 18.8673 93.7077 18.4996 93.5704 18.3196C93.3785 18.068 93.1214 17.9638 92.7448 17.9851C92.3336 18.0083 92.1361 18.1554 91.8956 18.6175C91.5258 19.328 91.0586 19.6645 90.2871 19.7761C89.7734 19.8503 89.4196 19.793 88.9444 19.5587C88.1571 19.1705 87.7512 18.4987 87.6065 17.3445C87.5345 16.7704 87.5473 15.013 87.6274 14.4819C87.79 13.4033 88.1753 12.8236 89.005 12.4093C89.8319 11.9963 90.9347 12.1747 91.521 12.8162C91.6546 12.9624 91.8182 13.1906 91.8846 13.3233C92.0285 13.6108 92.1574 13.7598 92.3488 13.8595C92.9123 14.1533 93.5524 13.9029 93.721 13.3226C93.7876 13.0936 93.7877 13.0445 93.7221 12.8189C93.52 12.1236 92.7658 11.3367 91.8873 10.9047C91.2517 10.592 90.8987 10.5121 90.0836 10.496C89.6943 10.4883 89.312 10.4921 89.2341 10.5044ZM99.4747 10.5413C98.9425 10.6467 98.4069 10.856 97.9905 11.1214C96.9335 11.795 96.321 12.7883 96.0666 14.2413C95.9623 14.8376 95.9499 17.0315 96.0472 17.6701C96.3104 19.3959 97.1811 20.5816 98.6276 21.1838C99.2265 21.4331 99.7967 21.5286 100.536 21.5036C101.815 21.4604 102.732 21.076 103.558 20.2374C104.527 19.2525 104.887 17.9411 104.812 15.6644C104.762 14.1426 104.587 13.3121 104.159 12.5606C103.633 11.6374 102.697 10.9185 101.622 10.6124C101.163 10.4816 99.9748 10.4423 99.4747 10.5413ZM46.054 10.7262C45.7689 10.8596 45.5522 11.0737 45.407 11.3652L45.299 11.5824L45.286 15.9462C45.2773 18.8783 45.2893 20.3888 45.3228 20.5501C45.495 21.3791 46.5633 21.6027 47.0444 20.9104L47.1866 20.7058L47.1994 17.3593C47.2064 15.5187 47.2276 14.0133 47.2466 14.014C47.2655 14.0147 48.2446 15.5543 49.4223 17.4352C50.7968 19.6304 51.6285 20.9137 51.7446 21.0186C51.9779 21.2295 52.3713 21.3475 52.7317 21.3148C53.2072 21.2717 53.5924 20.9959 53.8001 20.5497L53.9104 20.3128L53.9109 15.8399C53.9113 11.9087 53.9026 11.3458 53.8383 11.1922C53.5399 10.4777 52.551 10.4025 52.1417 11.0632L52.0001 11.2917L51.9765 14.558L51.9529 17.8243L49.8529 14.4919C48.6979 12.659 47.6666 11.072 47.561 10.9653C47.2089 10.6094 46.5331 10.5022 46.054 10.7262ZM66.014 10.7037C65.756 10.8208 65.5864 11.0357 65.5247 11.3238C65.4627 11.613 65.4556 20.2943 65.5171 20.6128C65.5611 20.8403 65.6715 21.0119 65.869 21.1593C65.9971 21.255 66.0517 21.2568 69.1694 21.2698C71.9382 21.2814 72.364 21.2738 72.5322 21.21C72.9051 21.0685 73.1514 20.6747 73.0964 20.3079C73.0428 19.9503 72.7772 19.6597 72.4304 19.5793C72.3285 19.5557 71.1566 19.5359 69.826 19.5352L67.4068 19.5341L67.4193 18.0594L67.4317 16.5847L69.6497 16.5611C71.8326 16.5378 71.8704 16.5358 72.0347 16.4336C72.469 16.1635 72.5481 15.4796 72.1852 15.132C71.9045 14.8632 71.8945 14.8622 69.5568 14.8622H67.4081V13.6116V12.361L69.8975 12.36C72.2167 12.359 72.3997 12.353 72.5756 12.2718C72.804 12.1664 72.9478 12.017 73.0452 11.7838C73.131 11.5785 73.1346 11.5013 73.069 11.2653C73.0038 11.0306 72.8103 10.8094 72.5775 10.7037C72.3987 10.6224 72.1939 10.617 69.2958 10.617C66.3977 10.617 66.1928 10.6224 66.014 10.7037ZM108.365 10.6773C107.873 10.816 107.441 11.2916 107.333 11.8144C107.299 11.9792 107.287 13.4378 107.295 16.3502C107.308 20.6367 107.309 20.6434 107.41 20.8319C107.534 21.0636 107.638 21.1607 107.863 21.2548C108.341 21.4546 108.886 21.2277 109.107 20.7375C109.13 20.6856 109.16 19.0619 109.172 17.1292L109.196 13.6154L110.419 16.9877C111.092 18.8424 111.69 20.4555 111.748 20.5723C112.014 21.1069 112.598 21.3318 113.113 21.0978C113.5 20.9223 113.497 20.9289 114.854 17.245C115.553 15.3505 116.142 13.7802 116.164 13.7555C116.186 13.7309 116.204 15.2691 116.204 17.1738C116.204 20.6064 116.205 20.6387 116.304 20.8437C116.444 21.1331 116.69 21.285 117.064 21.3132C117.314 21.3321 117.394 21.3177 117.573 21.2217C117.689 21.1591 117.849 21.0173 117.926 20.9068L118.068 20.7058L118.082 16.3564C118.095 12.4885 118.088 11.9758 118.021 11.7239C117.719 10.5927 116.337 10.248 115.554 11.1089C115.337 11.3475 115.296 11.4474 114.084 14.701C113.399 16.5416 112.815 18.0947 112.786 18.1522C112.742 18.2425 112.576 17.8278 111.584 15.132C110.951 13.4133 110.368 11.84 110.289 11.6359C110.035 10.9829 109.602 10.6616 108.937 10.6317C108.737 10.6227 108.487 10.6427 108.365 10.6773ZM40.8382 10.7683C40.7155 10.8304 40.5692 10.9595 40.4861 11.0791L40.3439 11.2837V15.987V20.6903L40.4855 20.8992C40.8202 21.3933 41.5065 21.466 41.9408 21.0535C42.2513 20.7586 42.23 21.0986 42.2463 16.1599C42.257 12.9109 42.2462 11.6077 42.2068 11.426C42.0736 10.8097 41.3981 10.4851 40.8382 10.7683ZM56.2352 10.7023C56.0578 10.7534 55.7935 10.9941 55.7189 11.1727C55.5415 11.5973 55.7127 12.1209 56.096 12.3257C56.2853 12.4269 56.3537 12.4325 57.5569 12.4471L58.8193 12.4623V16.5957V20.7292L58.9393 20.934C59.1049 21.2166 59.3642 21.3471 59.7631 21.3487C60.129 21.3501 60.385 21.2271 60.5662 20.9626L60.6834 20.7916L60.6959 16.6269L60.7085 12.4622L61.9937 12.447C63.4045 12.4304 63.446 12.4226 63.6939 12.128C64.0659 11.6859 63.9356 11.0059 63.4323 10.7622C63.2271 10.6629 63.1994 10.6622 59.7836 10.6669C57.8906 10.6695 56.2938 10.6854 56.2352 10.7023ZM75.9997 10.7662C75.8844 10.8258 75.7251 10.9561 75.6458 11.0559L75.5014 11.2372L75.489 15.9525C75.4769 20.5201 75.4794 20.6734 75.5669 20.8442C75.6886 21.0814 75.8406 21.2153 76.0868 21.3022C76.4485 21.4298 76.7887 21.3694 77.0624 21.129C77.3922 20.8395 77.3866 20.8742 77.4127 18.9914L77.4363 17.2925H78.6329H79.8296L80.6499 19.133C81.5246 21.0952 81.5643 21.1611 81.9384 21.2732C82.5948 21.4699 83.17 21.0583 83.17 20.3921C83.17 20.1787 83.0796 19.9439 82.468 18.5689L81.766 16.9906L82.1633 16.7676C82.8743 16.3686 83.3888 15.6909 83.5961 14.8806C83.7094 14.4375 83.7195 13.6702 83.6184 13.1869C83.437 12.3198 82.7862 11.4832 81.9903 11.0938C81.1813 10.698 81.1408 10.6931 78.5217 10.6744L76.2093 10.6579L75.9997 10.7662ZM100.985 12.2838C101.641 12.4596 102.244 12.9394 102.505 13.4936C102.808 14.1356 102.925 15.0472 102.881 16.4195C102.848 17.4501 102.749 17.9953 102.497 18.5175C101.813 19.9395 99.923 20.2466 98.7667 19.1236C98.4082 18.7755 98.1475 18.1975 98.0364 17.5049C97.952 16.9785 97.9234 15.6393 97.9835 15.0273C98.0559 14.2903 98.1424 13.9292 98.3501 13.4974C98.631 12.9133 99.1723 12.4703 99.8286 12.2871C100.113 12.2077 100.694 12.206 100.985 12.2838ZM80.5523 12.387C81.2785 12.5761 81.747 13.139 81.7913 13.8752C81.8238 14.4182 81.7214 14.7143 81.3852 15.0485C81.169 15.2634 81.0555 15.3349 80.7977 15.4188C80.4954 15.5172 80.3966 15.5229 78.969 15.5229H77.4599V13.9183V12.3138H78.8657C79.9832 12.3138 80.3291 12.3288 80.5523 12.387ZM5.37951 22.0818C5.43387 22.0822 5.77011 22.2718 6.12678 22.5033C8.04421 23.7477 10.1684 24.5214 12.6661 24.8851C14.2282 25.1125 16.4076 25.1136 17.9516 24.8878C20.7075 24.4847 22.933 23.62 24.8224 22.2182C25.2639 21.8906 25.9275 22.0351 26.2302 22.5247C26.4236 22.8376 26.4514 23.2182 26.3031 23.5245C25.9991 24.1525 23.8204 25.3749 21.6922 26.1117C19.5883 26.8399 16.5874 27.2313 14.2033 27.0885C10.792 26.8841 7.89674 26.0346 5.49428 24.5332C4.38858 23.8422 4.17169 23.6068 4.17169 23.0974C4.17169 22.7977 4.24894 22.5881 4.42808 22.4014C4.62869 22.1924 5.00613 22.0231 5.18631 22.0612C5.23822 22.0722 5.32514 22.0815 5.37951 22.0818Z" fill="#2D2D2D"/>
</svg>
