<svg width="126" height="126" viewBox="0 0 126 126" fill="none" xmlns="http://www.w3.org/2000/svg">
<path d="M0.5 63C0.5 28.4822 28.4822 0.5 63 0.5C97.5178 0.5 125.5 28.4822 125.5 63V125.5H0.5V63Z" fill="#F3AFA8"/>
<path d="M32.9279 99.3469L39.5794 99.3469L39.5794 92.4637L32.9279 92.4637L32.9279 99.3469ZM88.3042 42.8845C88.3042 42.4189 87.9395 42.0415 87.4896 42.0415L80.1579 42.0415C79.708 42.0415 79.3433 42.4189 79.3433 42.8845C79.3433 43.3501 79.708 43.7275 80.1579 43.7275L86.675 43.7275L86.675 50.4716C86.675 50.9372 87.0397 51.3146 87.4896 51.3146C87.9395 51.3146 88.3043 50.9372 88.3043 50.4716L88.3042 42.8845ZM36.8297 96.5014L88.0656 43.4806L86.9136 42.2884L35.6776 95.3092L36.8297 96.5014Z" fill="#2D2D2D"/>
</svg>
