<svg width="131" height="21" viewBox="0 0 131 21" fill="none" xmlns="http://www.w3.org/2000/svg">
<path d="M10.0232 1.93515C10.39 1.1919 11.4498 1.1919 11.8167 1.93515L13.6262 5.60164C13.7718 5.89678 14.0534 6.10135 14.3791 6.14868L18.4253 6.73663C19.2455 6.85581 19.5731 7.86378 18.9795 8.44232L16.0517 11.2963C15.816 11.526 15.7084 11.857 15.7641 12.1814L16.4553 16.2113C16.5954 17.0282 15.7379 17.6511 15.0043 17.2654L11.3853 15.3628C11.0939 15.2097 10.7459 15.2097 10.4546 15.3628L6.83554 17.2654C6.10191 17.6511 5.24448 17.0282 5.38459 16.2113L6.07577 12.1814C6.13141 11.857 6.02386 11.526 5.78817 11.2963L2.86031 8.44232C2.26679 7.86378 2.5943 6.85581 3.41452 6.73663L7.46073 6.14868C7.78644 6.10135 8.068 5.89678 8.21367 5.60164L10.0232 1.93515Z" fill="#2D2D2D"/>
<path d="M37.4968 1.93515C37.8636 1.1919 38.9235 1.1919 39.2903 1.93515L41.0998 5.60164C41.2455 5.89678 41.527 6.10135 41.8527 6.14868L45.899 6.73663C46.7192 6.85581 47.0467 7.86378 46.4532 8.44232L43.5253 11.2963C43.2896 11.526 43.1821 11.857 43.2377 12.1814L43.9289 16.2113C44.069 17.0282 43.2116 17.6511 42.4779 17.2654L38.8589 15.3628C38.5676 15.2097 38.2195 15.2097 37.9282 15.3628L34.3092 17.2654C33.5755 17.6511 32.7181 17.0282 32.8582 16.2113L33.5494 12.1814C33.605 11.857 33.4975 11.526 33.2618 11.2963L30.3339 8.44232C29.7404 7.86378 30.0679 6.85581 30.8882 6.73663L34.9344 6.14868C35.2601 6.10135 35.5416 5.89678 35.6873 5.60164L37.4968 1.93515Z" fill="#2D2D2D"/>
<path d="M64.97 1.93515C65.3368 1.1919 66.3966 1.1919 66.7634 1.93515L68.573 5.60164C68.7186 5.89678 69.0002 6.10135 69.3259 6.14868L73.3721 6.73663C74.1923 6.85581 74.5198 7.86378 73.9263 8.44232L70.9985 11.2963C70.7628 11.526 70.6552 11.857 70.7109 12.1814L71.402 16.2113C71.5421 17.0282 70.6847 17.6511 69.9511 17.2654L66.332 15.3628C66.0407 15.2097 65.6927 15.2097 65.4014 15.3628L61.7823 17.2654C61.0487 17.6511 60.1913 17.0282 60.3314 16.2113L61.0225 12.1814C61.0782 11.857 60.9706 11.526 60.7349 11.2963L57.8071 8.44232C57.2136 7.86378 57.5411 6.85581 58.3613 6.73663L62.4075 6.14868C62.7332 6.10135 63.0148 5.89678 63.1604 5.60164L64.97 1.93515Z" fill="#2D2D2D"/>
<path d="M92.4436 1.93515C92.8104 1.1919 93.8703 1.1919 94.2371 1.93515L96.0466 5.60164C96.1923 5.89678 96.4738 6.10135 96.7995 6.14868L100.846 6.73663C101.666 6.85581 101.993 7.86378 101.4 8.44232L98.4721 11.2963C98.2364 11.526 98.1288 11.857 98.1845 12.1814L98.8757 16.2113C99.0158 17.0282 98.1583 17.6511 97.4247 17.2654L93.8057 15.3628C93.5143 15.2097 93.1663 15.2097 92.875 15.3628L89.256 17.2654C88.5223 17.6511 87.6649 17.0282 87.805 16.2113L88.4962 12.1814C88.5518 11.857 88.4443 11.526 88.2086 11.2963L85.2807 8.44232C84.6872 7.86378 85.0147 6.85581 85.8349 6.73663L89.8811 6.14868C90.2068 6.10135 90.4884 5.89678 90.6341 5.60164L92.4436 1.93515Z" fill="#2D2D2D"/>
<path d="M119.917 1.93515C120.284 1.1919 121.343 1.1919 121.71 1.93515L123.52 5.60164C123.665 5.89678 123.947 6.10135 124.273 6.14868L128.319 6.73663C129.139 6.85581 129.467 7.86378 128.873 8.44232L125.945 11.2963C125.71 11.526 125.602 11.857 125.658 12.1814L126.349 16.2113C126.489 17.0282 125.631 17.6511 124.898 17.2654L121.279 15.3628C120.987 15.2097 120.639 15.2097 120.348 15.3628L116.729 17.2654C115.995 17.6511 115.138 17.0282 115.278 16.2113L115.969 12.1814C116.025 11.857 115.917 11.526 115.682 11.2963L112.754 8.44232C112.16 7.86378 112.488 6.85581 113.308 6.73663L117.354 6.14868C117.68 6.10135 117.962 5.89678 118.107 5.60164L119.917 1.93515Z" fill="#2D2D2D"/>
</svg>
